<?xml version="1.0" standalone="no"?>
<!DOCTYPE svg PUBLIC "-//W3C//DTD SVG 20010904//EN"
 "http://www.w3.org/TR/2001/REC-SVG-20010904/DTD/svg10.dtd">
<svg version="1.0" xmlns="http://www.w3.org/2000/svg"
 width="462" height="100" viewBox="0 0 1585.000000 366.000000"
 preserveAspectRatio="xMidYMid meet">

<g transform="translate(0.000000,366.000000) scale(0.100000,-0.100000)"
fill="#000000" stroke="none">
<path d="M3110 3305 c-8 -2 -55 -9 -105 -15 -197 -27 -403 -132 -569 -289
-117 -112 -193 -233 -261 -416 -37 -98 -38 -103 -42 -275 -5 -163 -4 -182 20
-281 26 -108 104 -329 157 -445 57 -127 265 -512 350 -649 47 -77 104 -169
125 -205 51 -86 338 -518 365 -550 15 -17 23 -21 27 -12 2 7 43 67 91 135 214
305 506 776 667 1077 42 80 81 150 84 155 4 6 14 26 21 45 7 19 37 91 66 160
167 396 165 727 -9 1054 -22 42 -69 98 -152 181 -177 176 -330 262 -540 303
-93 19 -261 34 -295 27z m262 -498 c148 -47 255 -143 329 -292 39 -78 42 -92
47 -186 6 -116 -7 -186 -48 -274 -66 -138 -182 -241 -327 -289 -66 -22 -96
-26 -194 -26 -101 0 -126 4 -203 30 -149 50 -228 114 -306 246 -59 100 -75
169 -68 297 7 112 30 179 100 283 71 107 199 197 323 229 89 22 248 14 347
-18z"/>
<path d="M4113 3038 l26 -33 818 0 c450 0 824 2 831 5 10 4 13 -45 12 -244 0
-138 -3 -252 -6 -255 -3 -4 -321 -7 -707 -9 -386 -1 -702 -4 -703 -5 -1 -1 1
-17 4 -36 l5 -34 637 7 c350 3 644 4 653 0 15 -6 17 -47 18 -458 1 -248 4
-533 8 -633 3 -100 4 -180 2 -177 -2 2 -11 -2 -19 -9 -13 -10 -14 -9 -8 2 8
11 -17 12 -155 6 -90 -4 -166 -8 -167 -10 -2 -2 -1 -13 3 -25 5 -16 10 -18 20
-10 9 8 14 7 18 -4 3 -8 1 -17 -6 -19 -7 -2 -9 -8 -5 -12 5 -5 16 -1 26 8 19
18 37 23 28 9 -3 -5 67 -9 154 -9 102 0 165 -5 173 -12 8 -6 17 -8 20 -4 10 9
6 -247 -4 -282 -6 -23 -7 -17 -4 25 3 50 3 52 -6 20 -18 -65 -32 -92 -39 -79
-14 21 -26 1 -24 -40 1 -23 -1 -43 -5 -46 -12 -7 -52 25 -46 36 4 5 -1 16 -10
25 -13 13 -15 29 -11 73 5 50 5 52 -5 21 -12 -42 -52 -80 -84 -80 -13 0 -38
12 -55 26 -25 22 -30 32 -25 53 4 14 12 29 18 33 18 12 96 9 119 -3 16 -9 19
-8 16 3 -3 8 -26 14 -69 16 -35 2 -67 8 -71 15 -5 8 -8 6 -8 -6 0 -10 -4 -15
-10 -12 -6 3 -7 -1 -4 -9 3 -9 1 -29 -4 -45 -8 -22 -7 -31 1 -35 7 -2 4 -5 -6
-5 -10 -1 -16 -5 -13 -9 3 -4 1 -25 -3 -45 -6 -24 -5 -38 3 -41 7 -3 7 -5 -2
-5 -7 -1 -17 9 -23 21 -9 22 -9 22 -4 -3 4 -22 1 -26 -18 -24 l-22 3 8 -147
c4 -80 5 -152 2 -158 -2 -7 -18 -13 -35 -13 -25 0 -30 -4 -30 -25 l0 -25 133
0 c72 0 174 -3 225 -7 l92 -6 0 192 0 191 26 6 27 7 -6 126 c-4 69 -7 174 -7
233 0 88 -3 106 -14 102 -8 -3 -17 0 -21 6 -6 9 -10 9 -16 -1 -7 -11 -9 -10
-9 4 0 9 5 17 10 17 7 0 10 217 10 630 0 497 3 630 13 630 6 0 29 5 50 11 l37
10 0 268 0 267 -27 26 c-16 14 -44 30 -63 36 -22 6 -335 11 -863 11 l-829 2
25 -33z m1708 -61 c-10 -9 -11 -8 -5 6 3 10 9 15 12 12 3 -3 0 -11 -7 -18z m2
-107 c-3 -12 -8 -19 -11 -16 -5 6 5 36 12 36 2 0 2 -9 -1 -20z m9 -90 c2 -16
-1 -31 -7 -33 -7 -3 -9 7 -7 29 5 42 8 43 14 4z m-192 -2051 c0 -11 -21 -11
-39 0 -9 6 -5 9 13 9 14 0 26 -4 26 -9z m15 -39 c3 -5 1 -10 -4 -10 -6 0 -11
5 -11 10 0 6 2 10 4 10 3 0 8 -4 11 -10z m49 -36 c11 -29 7 -272 -5 -280 -19
-12 -223 -4 -235 9 -7 7 -14 66 -17 144 l-5 132 87 4 c47 1 105 4 127 5 30 1
44 -2 48 -14z"/>
<path d="M5300 2755 l0 -95 63 2 62 1 -50 7 c-27 4 -44 8 -36 8 7 1 11 8 7 17
-4 12 2 15 27 15 17 0 72 -1 121 -1 93 0 107 -2 105 -22 0 -9 -2 -8 -6 1 -2 6
-9 10 -14 6 -12 -7 -1 -24 16 -24 25 0 38 74 23 128 l-14 47 -152 3 -152 3 0
-96z m281 58 c9 -9 8 -18 -5 -37 -15 -23 -23 -26 -76 -26 -49 0 -61 3 -70 20
-6 11 -21 20 -35 20 -29 0 -55 9 -55 20 0 21 221 23 241 3z m-166 -63 c-3 -5
-22 -10 -41 -10 -19 0 -34 5 -34 10 0 6 18 10 41 10 24 0 38 -4 34 -10z"/>
<path d="M7675 2765 c-179 -38 -246 -69 -382 -179 -131 -105 -210 -212 -269
-363 -54 -136 -64 -191 -64 -358 0 -292 72 -473 275 -691 35 -38 155 -124 215
-154 169 -85 517 -111 733 -55 126 33 371 149 410 194 12 13 16 93 20 413 l5
396 -36 4 c-20 1 -179 3 -352 3 l-315 0 -3 -170 -2 -170 181 4 182 3 -7 -32
c-3 -18 -6 -88 -6 -155 l0 -122 -72 -21 c-99 -28 -200 -42 -305 -41 -162 1
-271 45 -400 163 -91 83 -130 169 -153 336 -45 330 177 638 488 680 168 22
306 -12 500 -126 32 -18 33 -18 43 -1 6 10 46 57 89 105 44 47 85 97 92 110
11 22 10 27 -19 52 -41 37 -161 107 -235 137 -170 69 -401 83 -613 38z"/>
<path d="M11649 2753 c-2 -4 -2 -294 1 -643 6 -711 2 -662 84 -830 73 -151
204 -259 371 -309 191 -56 435 -42 604 34 68 32 164 100 218 157 55 57 117
183 145 294 23 88 23 93 20 688 -1 330 -5 602 -7 604 -2 3 -82 5 -177 6 l-173
1 0 -590 0 -590 -25 -70 c-19 -54 -38 -82 -80 -125 -84 -85 -111 -95 -260 -95
-125 0 -125 0 -190 36 -76 42 -133 110 -151 179 -7 29 -14 260 -19 643 -5 330
-11 602 -15 605 -10 10 -342 15 -346 5z"/>
<path d="M5468 2673 c7 -3 16 -2 19 1 4 3 -2 6 -13 5 -11 0 -14 -3 -6 -6z"/>
<path d="M4400 2156 c0 -30 -3 -61 -6 -70 -5 -14 6 -16 87 -16 51 0 89 3 85 7
-4 4 -22 6 -41 5 -23 -2 -35 2 -35 10 0 9 -3 9 -11 -2 -8 -11 -12 -12 -16 -2
-2 6 -14 12 -26 12 l-21 0 20 15 c12 8 47 18 78 23 52 8 58 7 71 -12 8 -11 15
-26 15 -32 0 -7 6 -15 13 -17 7 -4 6 -6 -5 -6 -9 -1 -18 6 -20 16 -2 9 -5
-351 -7 -800 l-4 -817 138 0 138 0 -7 65 c-8 81 -8 1524 0 1537 6 9 180 6 188
-3 2 -2 1 -212 -3 -467 l-6 -462 22 0 c12 0 29 -3 37 -6 15 -6 16 43 14 532
l-3 539 -347 3 -348 2 0 -54z m150 14 c0 -5 -20 -10 -45 -10 -25 0 -45 5 -45
10 0 6 20 10 45 10 25 0 45 -4 45 -10z m145 -410 c8 0 17 -9 20 -20 3 -11 13
-20 21 -20 8 0 14 9 14 20 0 24 13 26 30 5 9 -10 9 -15 1 -15 -6 0 -11 -16
-11 -35 0 -19 5 -35 10 -35 6 0 10 -37 10 -90 0 -73 -3 -90 -15 -90 -10 0 -16
11 -17 33 l-1 32 -4 -32 c-3 -25 -9 -33 -24 -33 -15 0 -19 -7 -19 -35 0 -19
-4 -35 -10 -35 -5 0 -10 13 -10 29 0 20 -6 30 -20 34 -19 5 -20 14 -20 125 0
70 4 123 10 127 6 3 11 21 11 38 1 18 3 24 6 15 2 -10 11 -18 18 -18z m5 -673
c17 -4 20 -16 22 -98 2 -63 7 -94 16 -97 8 -2 12 8 12 32 0 33 2 36 30 36 27
0 30 -3 30 -30 0 -16 -4 -30 -10 -30 -5 0 -10 -14 -10 -31 0 -22 -5 -32 -20
-36 -14 -4 -20 -14 -20 -34 0 -19 -5 -29 -15 -29 -10 0 -15 -11 -15 -35 0 -24
5 -35 15 -35 10 0 15 10 15 30 0 17 5 30 10 30 6 0 10 -40 10 -99 0 -70 4
-101 13 -104 25 -11 -16 -25 -52 -19 -33 5 -76 32 -52 32 6 0 11 16 11 35 0
28 -4 35 -20 35 -18 0 -20 7 -20 65 0 37 -4 65 -10 65 -5 0 -10 14 -10 30 0
17 5 30 10 30 6 0 10 16 10 35 0 19 -4 35 -10 35 -5 0 -10 14 -10 30 0 17 5
30 10 30 6 0 10 13 10 29 0 17 5 33 10 36 6 3 11 34 12 68 0 34 3 48 5 31 3
-21 11 -34 23 -37z m70 33 c0 -16 -4 -30 -10 -30 -5 0 -10 14 -10 30 0 17 5
30 10 30 6 0 10 -13 10 -30z"/>
<path d="M13892 2169 c-68 -11 -115 -36 -177 -93 -82 -76 -83 -76 -77 3 l5 69
-29 5 c-16 3 -93 9 -171 13 l-143 6 -2 -873 c-2 -481 -1 -880 1 -887 2 -10 43
-12 175 -10 l171 3 9 210 c6 140 5 253 -2 340 -6 71 -9 131 -7 133 1 2 27 -15
56 -37 30 -23 88 -55 129 -73 68 -28 85 -31 180 -32 123 -1 195 17 279 71 104
66 169 143 232 278 53 112 65 201 50 343 -20 180 -102 335 -224 427 -135 102
-274 134 -455 104z m139 -301 c56 -19 86 -45 139 -125 l52 -77 -4 -101 c-2
-82 -7 -108 -27 -145 -63 -121 -138 -172 -255 -173 -121 -1 -210 54 -266 165
-27 55 -30 71 -30 152 0 80 4 99 29 151 36 76 89 126 158 151 47 16 159 18
204 2z"/>
<path d="M9182 2159 c-78 -10 -119 -23 -197 -62 -114 -57 -191 -119 -177 -143
4 -7 34 -32 67 -57 33 -25 73 -59 89 -76 17 -17 35 -31 41 -31 6 0 28 18 50
40 31 32 51 42 106 55 86 19 186 19 253 0 44 -13 55 -21 70 -52 10 -20 20 -58
23 -84 l6 -48 -34 -5 c-19 -3 -95 -7 -169 -10 -220 -9 -384 -65 -495 -171 -68
-64 -83 -123 -65 -249 21 -150 84 -234 217 -288 50 -20 75 -23 188 -23 151 0
171 6 299 90 46 30 88 55 94 55 7 0 8 -10 1 -32 -5 -18 -9 -48 -9 -66 l0 -33
153 3 152 3 6 350 c6 416 1 483 -46 583 -99 209 -305 293 -623 251z m338 -741
l0 -82 -73 -72 c-64 -63 -80 -73 -121 -79 -55 -9 -135 0 -182 20 -77 32 -97
143 -38 207 49 52 68 56 397 86 15 2 17 -8 17 -80z"/>
<path d="M10285 2152 c-144 -44 -224 -103 -272 -201 -25 -50 -28 -67 -28 -156
0 -90 3 -106 28 -158 37 -75 112 -125 252 -168 55 -16 129 -39 165 -50 36 -11
86 -34 113 -51 41 -26 47 -34 47 -65 0 -49 -15 -71 -58 -83 -92 -25 -223 -8
-345 47 -96 43 -112 39 -189 -50 -29 -34 -57 -65 -62 -68 -18 -13 4 -40 65
-79 145 -94 250 -124 429 -124 225 0 378 72 445 209 53 108 43 272 -22 358
-36 47 -140 101 -313 161 -74 26 -159 60 -188 77 -51 29 -53 32 -50 67 2 29
10 41 37 59 29 20 47 23 125 23 81 0 101 -4 176 -35 78 -32 86 -33 95 -18 16
29 67 76 118 111 l48 32 -20 29 c-74 103 -430 183 -596 133z"/>
<path d="M1471 1390 c14 -11 18 -19 11 -20 -7 0 -21 8 -30 17 -16 16 -17 16
-20 0 -2 -10 -14 -18 -30 -19 -54 -3 -109 -17 -125 -32 -36 -34 -70 -54 -84
-49 -27 11 -160 -155 -155 -194 3 -16 -6 -33 -27 -52 -34 -31 -40 -28 -15 7
25 36 10 25 -25 -18 -20 -25 -26 -37 -15 -33 11 4 15 2 11 -4 -8 -13 154 -15
207 -2 23 5 50 11 60 12 11 1 21 8 24 15 3 9 -23 12 -107 12 -61 0 -111 2
-111 6 0 25 210 268 250 289 37 19 110 31 110 18 0 -16 -25 -82 -58 -153 -17
-36 -39 -89 -50 -117 -20 -52 -20 -53 -1 -53 10 0 19 -4 19 -10 0 -5 7 -10 15
-10 8 0 15 9 15 19 0 11 6 21 13 24 6 2 8 8 4 13 -5 5 -16 -2 -26 -15 -11 -14
-21 -19 -25 -13 -13 22 59 176 80 168 18 -7 30 12 51 84 l19 65 347 0 c225 0
347 -4 347 -10 0 -5 -9 -37 -19 -70 -25 -79 -36 -165 -22 -165 16 0 48 78 55
137 4 29 13 70 20 91 12 35 12 43 0 61 -15 21 -20 21 -376 21 -360 0 -360 0
-337 -20z m673 -9 c4 -5 -3 -7 -14 -4 -23 6 -26 13 -6 13 8 0 17 -4 20 -9z
m34 -32 c-3 -20 -5 -19 -9 9 -3 20 -2 29 4 23 5 -5 7 -19 5 -32z m-780 -144
c-3 -3 -9 2 -12 12 -6 14 -5 15 5 6 7 -7 10 -15 7 -18z"/>
<path d="M4076 1152 c-6 -10 -12 -430 -6 -436 3 -2 58 -2 122 1 l118 6 2 161
3 161 48 3 c46 3 62 17 32 28 -8 4 -15 12 -15 19 0 7 -9 15 -21 18 -27 7 -15
28 14 23 16 -2 21 -9 19 -24 -2 -11 2 -23 8 -27 6 -4 10 9 10 34 l0 40 -165 0
c-90 0 -166 -3 -169 -7z m230 -36 c8 -8 14 -23 14 -33 0 -15 -2 -16 -11 -3 -8
12 -10 12 -8 -5 1 -11 1 -89 0 -173 l-1 -152 -24 6 c-13 3 -27 1 -30 -5 -4 -6
-15 -11 -24 -10 -14 0 -14 2 3 10 14 7 3 8 -37 5 -35 -3 -58 -1 -58 5 0 6 -9
7 -22 4 -20 -7 -21 -5 -15 41 4 27 3 43 -1 36 -5 -7 -10 44 -10 118 -2 109 0
132 13 136 12 5 13 9 4 20 -17 21 186 20 207 0z"/>
<path d="M4101 784 c0 -11 3 -14 6 -6 3 7 2 16 -1 19 -3 4 -6 -2 -5 -13z"/>
<path d="M1022 1080 c0 -14 2 -19 5 -12 2 6 2 18 0 25 -3 6 -5 1 -5 -13z"/>
<path d="M1355 1090 c-3 -5 -1 -10 4 -10 6 0 11 5 11 10 0 6 -2 10 -4 10 -3 0
-8 -4 -11 -10z"/>
<path d="M5770 1045 c0 -8 5 -15 10 -15 6 0 10 7 10 15 0 8 -4 15 -10 15 -5 0
-10 -7 -10 -15z"/>
<path d="M1356 1019 c7 -11 123 -28 239 -34 60 -4 116 -11 123 -18 8 -6 12
-24 10 -44 -5 -38 11 -39 29 -2 19 37 43 49 97 49 28 0 88 3 134 7 70 5 82 9
82 24 0 18 -19 19 -359 21 -198 2 -357 0 -355 -3z m397 -74 c-3 -9 -8 -14 -10
-11 -3 3 -2 9 2 15 9 16 15 13 8 -4z"/>
<path d="M5496 1002 c-3 -5 -15 -8 -28 -7 -13 1 -31 -4 -40 -12 -9 -8 -21 -12
-27 -9 -5 3 -12 0 -14 -6 -4 -10 -8 -9 -16 2 -8 11 -11 -10 -11 -80 0 -52 -3
-119 -6 -147 -4 -29 -3 -53 2 -53 5 0 9 15 10 33 2 105 19 165 57 211 29 36
50 27 43 -17 -4 -23 -1 -19 9 12 8 24 20 50 26 57 7 8 9 17 6 20 -3 3 -8 1
-11 -4z"/>
<path d="M760 977 c-6 -56 -7 -171 -1 -197 7 -29 9 -22 10 40 0 41 4 89 9 105
8 28 12 30 50 27 34 -3 41 0 36 12 -4 10 -20 15 -55 14 -27 0 -49 -1 -49 -1z"/>
<path d="M893 918 c2 -21 30 -24 46 -4 9 11 6 14 -18 18 -24 3 -29 1 -28 -14z"/>
<path d="M886 854 c-9 -22 -8 -24 9 -24 8 0 15 9 15 20 0 24 -15 27 -24 4z"/>
<path d="M1742 856 c10 -7 15 -16 11 -19 -9 -10 9 -8 24 1 8 5 2 12 -20 20
-27 10 -29 9 -15 -2z"/>
<path d="M2070 851 c-65 -9 -37 -19 55 -20 44 0 103 -3 130 -7 28 -3 63 -1 78
5 24 9 33 8 54 -9 14 -11 33 -20 42 -20 14 -1 13 -2 -2 -11 -13 -8 -23 -7 -35
3 -15 12 -16 11 -3 -5 8 -10 21 -15 31 -12 12 4 19 -1 23 -17 7 -25 -11 -42
-29 -27 -7 6 -24 12 -38 15 -19 3 -26 0 -26 -12 0 -10 -5 -14 -15 -10 -8 3
-15 1 -15 -5 0 -6 -7 -9 -15 -6 -8 4 -17 2 -20 -3 -4 -6 3 -10 15 -10 61 0
120 -72 120 -147 0 -49 -27 -114 -57 -137 -13 -9 -39 -20 -59 -23 -29 -5 -40
-1 -64 22 -16 15 -38 49 -50 76 -11 27 -22 49 -23 49 -2 0 -3 -16 -2 -37 0
-20 -5 -38 -13 -40 -7 -3 -10 1 -7 9 3 8 -1 14 -12 14 -10 1 -26 4 -35 9 -15
6 -18 2 -18 -18 0 -14 -3 -34 -6 -44 -6 -16 -5 -16 9 2 15 19 15 19 10 -5 -3
-20 5 -36 39 -71 l43 -46 101 -6 c55 -3 126 -3 158 0 55 6 60 8 97 57 22 28
49 62 60 75 11 13 18 25 17 26 -2 1 -23 8 -48 16 l-45 14 -7 70 c-14 143 -28
192 -67 236 -27 31 -47 43 -79 49 -52 9 -229 10 -292 1z"/>
<path d="M1816 831 c11 -5 52 -12 90 -15 51 -4 58 -3 29 3 -68 14 -142 22
-119 12z"/>
<path d="M773 685 c0 -27 2 -38 4 -22 2 15 2 37 0 50 -2 12 -4 0 -4 -28z"/>
<path d="M2235 690 c-10 -11 -22 -17 -28 -13 -6 4 -7 1 -2 -6 5 -9 14 -6 34
11 14 13 28 24 30 26 2 1 0 2 -6 2 -5 0 -18 -9 -28 -20z"/>
<path d="M1389 644 c5 -11 17 -26 25 -34 24 -19 20 -100 -5 -153 -33 -67 -86
-92 -142 -66 -26 12 -57 57 -57 85 0 24 -6 15 -14 -21 -5 -22 -4 -26 4 -15 5
9 10 10 10 3 0 -6 3 -18 6 -27 4 -11 0 -14 -16 -11 -18 3 -21 1 -17 -16 5 -19
4 -20 -20 -4 -23 16 -25 16 -21 -1 1 -9 20 -31 41 -48 l39 -31 144 -3 c163 -4
155 -7 216 75 38 52 78 133 43 89 -8 -11 -25 -20 -37 -21 -12 -1 -24 -8 -26
-16 -3 -11 -1 -11 8 1 10 13 11 13 7 0 -2 -10 -13 -14 -29 -12 -18 2 -31 -4
-42 -20 -12 -17 -16 -19 -16 -6 0 9 -5 18 -10 20 -6 2 -13 32 -15 67 -2 35 -9
69 -15 75 -5 5 -10 17 -10 25 0 9 -14 32 -31 51 -17 19 -26 26 -20 14z"/>
<path d="M2183 617 c-15 -30 -23 -57 -18 -57 6 0 36 72 32 77 -2 1 -8 -7 -14
-20z"/>
<path d="M733 588 c1 -57 24 -61 192 -29 32 6 23 8 -48 9 -79 2 -91 4 -107 24
-11 13 -19 18 -20 11 0 -6 6 -14 13 -16 9 -4 9 -6 -1 -6 -7 -1 -16 9 -21 22
-7 18 -9 16 -8 -15z"/>
<path d="M3583 483 c-16 -21 -44 -63 -62 -93 -17 -30 -37 -63 -43 -72 -7 -9
-10 -19 -8 -21 8 -8 130 15 130 24 0 5 -4 9 -10 9 -5 0 -10 5 -10 11 0 5 4 8
9 4 6 -3 13 11 17 31 6 35 -8 60 -28 48 -4 -3 -5 2 -2 10 3 9 11 13 18 9 6 -3
8 -3 4 2 -4 4 -4 13 1 19 9 12 21 56 16 56 -2 0 -16 -17 -32 -37z"/>
<path d="M788 493 c7 -3 16 -2 19 1 4 3 -2 6 -13 5 -11 0 -14 -3 -6 -6z"/>
<path d="M2007 493 c-4 -3 -57 -9 -119 -13 l-113 -7 111 -1 c88 -2 114 1 124
13 12 15 10 21 -3 8z"/>
<path d="M1708 473 c6 -2 18 -2 25 0 6 3 1 5 -13 5 -14 0 -19 -2 -12 -5z"/>
</g>
</svg>
