<svg width="60px" height="49px" viewBox="0 0 262 394" fill="none" xmlns="http://www.w3.org/2000/svg">
<ellipse cx="131" cy="131" rx="130" ry="131" fill="#FF0101"/>
<path d="M131.211 391.112C130.39 392.259 128.671 392.217 127.906 391.033L93 337L52.5 268L24.0886 218.155C24.0296 218.052 23.9801 217.944 23.9404 217.831L1.44226 154.166C0.982372 152.865 1.94773 151.5 3.32797 151.5L258.632 151.5C260.023 151.5 260.989 152.886 260.508 154.191L237.052 217.859C237.017 217.953 236.976 218.044 236.928 218.132L209.5 268L170 337L131.211 391.112Z" fill="#FF0101"/>
<ellipse cx="132" cy="127" rx="72" ry="70" fill="white"/>
</svg>
