<svg width="460" height="150" viewBox="0 0 694 643" fill="none" xmlns="http://www.w3.org/2000/svg">
<path d="M0.5 409H204.5H281L275.5 401.5L267.5 389.5H0.5V409Z" fill="#E3E4E6"/>
<path d="M393.5 389.5V308.5C367.1 350.1 347.167 378.833 340.5 388L320.5 409H665C664.833 402.5 664.6 389.5 665 389.5H393.5Z" fill="#E3E4E6"/>
<path d="M480.5 167.835V365.262H515V167.835H538.5V280.939H548C548.4 280.939 548.167 191.399 548 146.629H452.5V167.835H480.5Z" fill="#808385"/>
<path d="M582.5 377.885H571.5V387.983C571.5 387.579 610.167 387.815 629.5 387.983V339.51H638C638.4 339.51 638.167 300.463 638 280.939H629.5V120.877C629.5 119.363 641.5 124.412 645 112.799C645 45.6434 638 40.0892 638 41.099C638 41.9069 489.333 41.4357 415 41.099C418.333 44.9701 425.4 52.4094 427 51.1976C428.6 49.9857 562.667 50.6926 629.5 51.1976V105.73C629.5 111.385 511.5 108.086 452.5 105.73V120.877H614V274.375C614 275.183 585.667 274.711 571.5 274.375V339.51L582.5 347.084V372.33V377.885Z" fill="#808385"/>
<ellipse cx="305.086" cy="135.161" rx="153.496" ry="135.161" fill="white"/>
<path d="M308.133 421.672C307.484 422.433 306.373 422.598 305.531 422.058L280.876 406.241C280.628 406.082 280.419 405.871 280.262 405.622L256 367L211.5 295L172.636 230.725C172.546 230.576 172.475 230.415 172.427 230.247L151.741 158.869C151.37 157.59 152.33 156.313 153.662 156.313L456.159 156.313C457.59 156.313 458.558 157.771 458.002 159.09L430.245 224.925L402.5 277.5L365.112 354.769C365.038 354.922 364.944 355.066 364.833 355.195L308.133 421.672Z" fill="white"/>
<ellipse cx="306.267" cy="131.034" rx="85.0131" ry="72.2236" fill="white"/>
<ellipse cx="305" cy="143" rx="130" ry="131" fill="#FF0101"/>
<path d="M305.211 403.112C304.39 404.259 302.671 404.217 301.906 403.033L267 349L226.5 280L198.089 230.155C198.03 230.052 197.98 229.944 197.94 229.831L175.442 166.166C174.982 164.865 175.948 163.5 177.328 163.5L432.632 163.5C434.023 163.5 434.989 164.886 434.508 166.191L411.052 229.859C411.017 229.953 410.976 230.044 410.928 230.132L383.5 280L344 349L305.211 403.112Z" fill="#FF0101"/>
<ellipse cx="306" cy="139" rx="72" ry="70" fill="white"/>
<rect x="569" y="69" width="42" height="27" fill="#808385"/>
<path d="M460 280V288V294.5H448C447.833 308.167 447.6 335.5 448 335.5H416L417.5 280H460Z" fill="#808385"/>
<path d="M180.5 385C200.1 390.6 216 387.333 221.5 385C223.587 378.018 223.86 372.997 223.5 363C221.43 359.55 221.5 340 221.5 340L218.669 329L212 321.5C212 321.5 183.092 318.897 161 318.5C146.589 323.773 138.82 323.623 130.5 318.5C125.591 316.573 124.395 310.242 130.5 306.5C146.998 303.446 156.956 301.047 168 303.5V294.5H79.5L91 258H163H176.5C175.484 261.616 170.5 274.5 170.5 276C170.5 276 169.963 285.016 170.5 286.5L172.5 288.5C177.398 280.282 180.909 265.699 183 247.5L68.5 249.5L24 303H2.50001V347C1.00001 346.833 -1.09999 349.8 2.50001 363C15.3 367 27.1667 368 31.5 368C35.5 366.667 44.1 365.7 46.5 372.5C48.9 379.3 57.8333 383.667 62 385C83.2 391.4 95.1667 387.667 98.5 385L115.5 368H163C162.167 366.667 164.5 368.2 180.5 385Z" fill="#808385"/>
<path d="M68 295C70.4 293.8 78.6667 269.167 82.5 257C63.5736 259.321 43.5 295 43.5 295H68Z" fill="white"/>
<path d="M118.045 495C116.483 490.218 114.423 485.933 111.866 482.145C109.357 478.31 106.35 475.043 102.847 472.344C99.3902 469.645 95.4602 467.585 91.0568 466.165C86.6534 464.744 81.8239 464.034 76.5682 464.034C67.9508 464.034 60.1146 466.259 53.0597 470.71C46.0047 475.161 40.3939 481.719 36.2273 490.384C32.0606 499.048 29.9773 509.678 29.9773 522.273C29.9773 534.867 32.0843 545.497 36.2983 554.162C40.5123 562.827 46.2178 569.384 53.4148 573.835C60.6117 578.286 68.7083 580.511 77.7045 580.511C86.0379 580.511 93.3769 578.736 99.7216 575.185C106.114 571.586 111.085 566.52 114.636 559.986C118.235 553.404 120.034 545.663 120.034 536.761L125.432 537.898H81.6818V522.273H137.08V537.898C137.08 549.877 134.523 560.294 129.409 569.148C124.343 578.002 117.335 584.867 108.386 589.744C99.4848 594.574 89.2576 596.989 77.7045 596.989C64.8258 596.989 53.5095 593.958 43.7557 587.898C34.0492 581.837 26.4735 573.22 21.0284 562.045C15.6307 550.871 12.9318 537.614 12.9318 522.273C12.9318 510.767 14.4706 500.421 17.5483 491.236C20.6733 482.003 25.0767 474.143 30.7585 467.656C36.4403 461.17 43.1638 456.198 50.929 452.741C58.6941 449.285 67.2405 447.557 76.5682 447.557C84.2386 447.557 91.3883 448.717 98.017 451.037C104.693 453.31 110.635 456.553 115.844 460.767C121.099 464.934 125.479 469.929 128.983 475.753C132.487 481.529 134.902 487.945 136.227 495H118.045ZM197.076 597.557C190.163 597.557 183.889 596.255 178.255 593.651C172.621 590.999 168.146 587.188 164.832 582.216C161.517 577.197 159.86 571.136 159.86 564.034C159.86 557.784 161.091 552.718 163.553 548.835C166.015 544.905 169.306 541.828 173.425 539.602C177.545 537.377 182.09 535.72 187.062 534.631C192.081 533.494 197.123 532.595 202.19 531.932C208.818 531.08 214.192 530.44 218.312 530.014C222.478 529.541 225.509 528.759 227.403 527.67C229.344 526.581 230.315 524.687 230.315 521.989V521.42C230.315 514.413 228.397 508.968 224.562 505.085C220.774 501.203 215.021 499.261 207.303 499.261C199.301 499.261 193.028 501.013 188.482 504.517C183.937 508.021 180.741 511.761 178.894 515.739L162.985 510.057C165.826 503.428 169.614 498.267 174.349 494.574C179.131 490.833 184.339 488.229 189.974 486.761C195.656 485.246 201.243 484.489 206.735 484.489C210.239 484.489 214.263 484.915 218.809 485.767C223.402 486.572 227.829 488.253 232.09 490.81C236.399 493.366 239.974 497.225 242.815 502.386C245.656 507.547 247.076 514.46 247.076 523.125V595H230.315V580.227H229.462C228.326 582.595 226.432 585.128 223.781 587.827C221.129 590.526 217.602 592.822 213.198 594.716C208.795 596.61 203.421 597.557 197.076 597.557ZM199.633 582.5C206.262 582.5 211.849 581.198 216.394 578.594C220.987 575.99 224.443 572.628 226.763 568.509C229.131 564.389 230.315 560.057 230.315 555.511V540.17C229.604 541.023 228.042 541.804 225.627 542.514C223.26 543.177 220.513 543.769 217.388 544.29C214.311 544.763 211.304 545.189 208.369 545.568C205.48 545.9 203.137 546.184 201.337 546.42C196.981 546.989 192.909 547.912 189.121 549.19C185.381 550.421 182.351 552.292 180.031 554.801C177.758 557.263 176.621 560.625 176.621 564.886C176.621 570.71 178.776 575.114 183.085 578.097C187.441 581.032 192.957 582.5 199.633 582.5ZM354.942 510.341L339.885 514.602C338.938 512.093 337.541 509.654 335.695 507.287C333.895 504.872 331.433 502.884 328.308 501.321C325.183 499.759 321.182 498.977 316.305 498.977C309.629 498.977 304.066 500.516 299.615 503.594C295.212 506.624 293.01 510.483 293.01 515.17C293.01 519.337 294.525 522.628 297.555 525.043C300.586 527.457 305.321 529.47 311.76 531.08L327.953 535.057C337.707 537.424 344.975 541.046 349.757 545.923C354.539 550.753 356.93 556.979 356.93 564.602C356.93 570.852 355.131 576.439 351.533 581.364C347.982 586.288 343.01 590.17 336.618 593.011C330.226 595.852 322.792 597.273 314.317 597.273C303.19 597.273 293.981 594.858 286.689 590.028C279.397 585.199 274.781 578.144 272.839 568.864L288.749 564.886C290.264 570.758 293.128 575.161 297.342 578.097C301.604 581.032 307.167 582.5 314.033 582.5C321.845 582.5 328.048 580.843 332.641 577.528C337.281 574.167 339.601 570.142 339.601 565.455C339.601 561.667 338.275 558.494 335.624 555.938C332.972 553.333 328.9 551.392 323.408 550.114L305.226 545.852C295.235 543.485 287.896 539.815 283.209 534.844C278.569 529.825 276.249 523.551 276.249 516.023C276.249 509.867 277.977 504.422 281.433 499.688C284.937 494.953 289.696 491.236 295.709 488.537C301.769 485.838 308.635 484.489 316.305 484.489C327.101 484.489 335.576 486.856 341.732 491.591C347.934 496.326 352.338 502.576 354.942 510.341ZM536.138 449.545H553.752V545.852C553.752 555.795 551.408 564.673 546.721 572.486C542.081 580.251 535.523 586.383 527.048 590.881C518.572 595.331 508.629 597.557 497.218 597.557C485.807 597.557 475.864 595.331 467.388 590.881C458.913 586.383 452.332 580.251 447.644 572.486C443.004 564.673 440.684 555.795 440.684 545.852V449.545H458.298V544.432C458.298 551.534 459.86 557.855 462.985 563.395C466.11 568.887 470.561 573.22 476.337 576.392C482.161 579.517 489.121 581.08 497.218 581.08C505.315 581.08 512.275 579.517 518.099 576.392C523.923 573.22 528.373 568.887 531.451 563.395C534.576 557.855 536.138 551.534 536.138 544.432V449.545ZM586.653 635.909V485.909H602.847V503.239H604.835C606.066 501.345 607.771 498.93 609.949 495.994C612.174 493.011 615.347 490.36 619.466 488.04C623.633 485.672 629.267 484.489 636.369 484.489C645.555 484.489 653.652 486.785 660.659 491.378C667.667 495.971 673.135 502.481 677.065 510.909C680.995 519.337 682.96 529.28 682.96 540.739C682.96 552.292 680.995 562.306 677.065 570.781C673.135 579.209 667.69 585.743 660.73 590.384C653.77 594.976 645.744 597.273 636.653 597.273C629.646 597.273 624.035 596.113 619.821 593.793C615.607 591.425 612.364 588.75 610.091 585.767C607.818 582.737 606.066 580.227 604.835 578.239H603.415V635.909H586.653ZM603.131 540.455C603.131 548.693 604.338 555.961 606.753 562.259C609.168 568.509 612.695 573.409 617.335 576.96C621.975 580.464 627.657 582.216 634.381 582.216C641.388 582.216 647.236 580.369 651.923 576.676C656.658 572.936 660.209 567.917 662.577 561.619C664.991 555.275 666.199 548.22 666.199 540.455C666.199 532.784 665.015 525.871 662.648 519.716C660.328 513.513 656.8 508.613 652.065 505.014C647.378 501.368 641.483 499.545 634.381 499.545C627.563 499.545 621.833 501.274 617.193 504.73C612.553 508.139 609.049 512.921 606.682 519.077C604.314 525.185 603.131 532.311 603.131 540.455Z" fill="black"/>
</svg>
