<?xml version="1.0" encoding="UTF-8"?>
<svg xmlns="http://www.w3.org/2000/svg" xmlns:xlink="http://www.w3.org/1999/xlink" width="60px" height="49px" viewBox="0 0 59 49" version="1.1">
<g id="surface1">
<path style=" stroke:none;fill-rule:nonzero;fill:rgb(0%,0%,0%);fill-opacity:1;" d="M 29.070312 0.367188 C 28.804688 0.433594 28.132812 0.671875 27.574219 0.886719 C 27.019531 1.105469 25.652344 1.625 24.53125 2.050781 C 22.335938 2.859375 20.636719 3.511719 16.886719 4.945312 C 15.5625 5.453125 13.59375 6.210938 12.507812 6.621094 C 9.820312 7.652344 9.652344 7.742188 9.40625 8.25 C 9.214844 8.628906 9.191406 8.890625 9.191406 11.304688 C 9.191406 19.75 10.605469 25.402344 14.355469 32.035156 C 15.285156 33.671875 17.582031 36.96875 17.796875 36.96875 C 17.957031 36.96875 19.367188 36.578125 20.46875 36.207031 C 21.003906 36.046875 22.007812 35.71875 22.710938 35.503906 C 23.996094 35.113281 25.972656 34.375 26.550781 34.074219 C 27.03125 33.824219 27.8125 33.042969 27.96875 32.652344 C 28.195312 32.109375 28.003906 31.570312 27.300781 30.789062 C 26.441406 29.855469 26.132812 29.648438 21.589844 26.992188 C 16.738281 24.152344 15.710938 23.480469 14.523438 22.363281 C 12.988281 20.890625 12.367188 19.632812 12.578125 18.375 C 12.761719 17.332031 13.105469 16.726562 14.042969 15.773438 C 15.082031 14.734375 16.429688 13.800781 18.382812 12.792969 C 21.941406 10.960938 25.695312 9.59375 32.757812 7.535156 C 35.632812 6.699219 36.671875 6.4375 41.128906 5.496094 L 42.761719 5.136719 L 40.648438 4.292969 C 35.28125 2.136719 31.488281 0.640625 30.902344 0.433594 C 30.171875 0.183594 29.769531 0.171875 29.070312 0.367188 Z M 29.070312 0.367188 "/>
<path style=" stroke:none;fill-rule:nonzero;fill:rgb(0%,0%,0%);fill-opacity:1;" d="M 47.242188 7.96875 C 46.335938 8.226562 44.101562 8.835938 42.273438 9.324219 C 30.65625 12.433594 25.714844 14.332031 23.707031 16.445312 C 22.691406 17.507812 22.734375 18.84375 23.824219 19.566406 C 24.339844 19.925781 26.742188 20.910156 29.070312 21.734375 C 31.328125 22.527344 33.5625 23.457031 35.324219 24.335938 C 38.40625 25.867188 41.011719 28.816406 41.460938 31.277344 C 41.71875 32.675781 41.535156 33.769531 40.816406 35.125 C 39.757812 37.117188 38.390625 38.710938 33.730469 43.40625 C 30.375 46.789062 30.042969 47.148438 30.621094 46.832031 C 33.710938 45.085938 36.664062 42.90625 39.214844 40.46875 C 42.421875 37.402344 44.988281 33.898438 46.710938 30.214844 C 47.542969 28.425781 48.792969 25.011719 49.21875 23.363281 C 50.109375 19.914062 50.503906 16.109375 50.425781 11.425781 C 50.382812 8.164062 50.363281 8.085938 49.496094 7.707031 C 49.207031 7.585938 48.953125 7.480469 48.929688 7.492188 C 48.910156 7.5 48.148438 7.71875 47.242188 7.96875 Z M 47.242188 7.96875 "/>
<path style=" stroke:none;fill-rule:nonzero;fill:rgb(0%,0%,0%);fill-opacity:1;" d="M 16.78125 15.480469 C 15.101562 16.433594 14.109375 17.714844 14.109375 18.929688 C 14.109375 21.105469 17.335938 23.796875 23.28125 26.550781 C 24.058594 26.917969 24.734375 27.210938 24.777344 27.210938 C 24.820312 27.210938 24.199219 26.863281 23.40625 26.441406 C 20.007812 24.628906 18.09375 23.320312 16.480469 21.683594 C 15.328125 20.511719 14.960938 19.859375 14.960938 18.960938 C 14.960938 17.789062 15.464844 16.964844 16.929688 15.785156 C 17.433594 15.359375 17.851562 15.015625 17.851562 14.992188 C 17.851562 14.894531 17.605469 15.003906 16.78125 15.480469 Z M 16.78125 15.480469 "/>
<path style=" stroke:none;fill-rule:nonzero;fill:rgb(0%,0%,0%);fill-opacity:1;" d="M 30.355469 23.699219 C 30.558594 23.796875 31.425781 24.21875 32.277344 24.628906 C 34.414062 25.671875 35.730469 26.570312 37.085938 27.957031 C 38.894531 29.800781 39.460938 31.035156 39.460938 33.066406 C 39.460938 33.800781 39.40625 34.398438 39.292969 34.742188 C 39.054688 35.492188 39.140625 35.472656 39.472656 34.691406 C 39.921875 33.640625 40.132812 32.242188 39.984375 31.296875 C 39.515625 28.273438 36.640625 25.855469 31.261719 23.945312 C 30.066406 23.535156 29.929688 23.492188 30.355469 23.699219 Z M 30.355469 23.699219 "/>
</g>
</svg>
