<svg xmlns="http://www.w3.org/2000/svg" xmlns:xlink="http://www.w3.org/1999/xlink" width="462" zoomAndPan="magnify" viewBox="0 0 346.5 95.249998" height="100" preserveAspectRatio="xMidYMid meet" version="1.0"><path fill="#000000" d="M 58.585938 0.492188 C 58.140625 0.570312 57.285156 0.808594 56.683594 1.046875 C 56.09375 1.269531 53.320312 2.300781 50.527344 3.328125 C 45.449219 5.199219 44.195312 5.675781 33.945312 9.546875 C 24.046875 13.273438 21.03125 14.445312 20.460938 14.761719 C 20.160156 14.9375 19.730469 15.347656 19.511719 15.667969 C 19.128906 16.222656 19.113281 16.394531 19.035156 18.949219 C 18.683594 30.730469 20.175781 41.308594 23.398438 49.871094 C 25.917969 56.578125 30.234375 64.316406 34.503906 69.816406 C 35.914062 71.640625 35.550781 71.5625 38.613281 70.65625 C 46.734375 68.246094 52.066406 66.40625 53.367188 65.535156 C 54.367188 64.886719 55.554688 63.710938 55.777344 63.15625 C 56.078125 62.445312 56.046875 61.730469 55.683594 60.90625 C 55.300781 60.066406 53.128906 57.859375 51.796875 56.972656 C 51.273438 56.625 47.351562 54.324219 43.070312 51.867188 C 33.675781 46.460938 31.804688 45.238281 29.425781 42.941406 C 27.441406 41.035156 26.457031 39.671875 26 38.199219 C 24.414062 33.125 28.839844 28.429688 40.054688 23.261719 C 46.148438 20.457031 54.191406 17.679688 65.898438 14.351562 C 71.199219 12.859375 72.722656 12.496094 80.511719 10.863281 C 82.875 10.371094 84.8125 9.941406 84.84375 9.910156 C 84.875 9.878906 84.730469 9.816406 84.527344 9.75 C 84.320312 9.6875 81.417969 8.546875 78.050781 7.214844 C 74.6875 5.898438 70.832031 4.375 69.484375 3.835938 C 68.136719 3.3125 65.679688 2.347656 64.011719 1.695312 C 60.855469 0.460938 59.949219 0.253906 58.585938 0.492188 Z M 58.585938 0.492188 " fill-opacity="1" fill-rule="nonzero"/><path fill="#000000" d="M 96.21875 14.605469 C 95.964844 14.683594 93.886719 15.238281 91.617188 15.839844 C 80.734375 18.710938 77.910156 19.472656 72.976562 20.867188 C 56.347656 25.578125 47.972656 29.492188 46.273438 33.300781 C 45.878906 34.171875 45.847656 35.566406 46.210938 36.25 C 46.609375 37.007812 47.925781 38.085938 48.957031 38.515625 C 49.480469 38.722656 50.890625 39.292969 52.113281 39.800781 C 53.335938 40.292969 55.839844 41.226562 57.664062 41.863281 C 62.363281 43.480469 67.566406 45.636719 70.914062 47.347656 C 75.847656 49.871094 80.890625 55.433594 81.941406 59.542969 C 82.335938 61.0625 82.398438 63.171875 82.113281 64.535156 C 81.511719 67.34375 79.320312 70.703125 74.816406 75.746094 C 73.070312 77.714844 68.628906 82.167969 61.710938 88.910156 C 60.632812 89.972656 59.777344 90.875 59.824219 90.921875 C 59.949219 91.050781 64.265625 88.527344 66.519531 87.023438 C 77.847656 79.441406 86.128906 70.5625 91.539062 60.175781 C 92.902344 57.589844 93.726562 55.640625 95.265625 51.550781 C 97.535156 45.476562 98.644531 40.6875 99.390625 33.695312 C 99.707031 30.761719 99.898438 19.628906 99.660156 17.539062 C 99.472656 15.902344 99.234375 15.460938 98.1875 14.953125 C 97.28125 14.492188 96.804688 14.414062 96.21875 14.605469 Z M 96.21875 14.605469 " fill-opacity="1" fill-rule="nonzero"/><path fill="#000000" d="M 35.121094 29.160156 C 33.359375 29.984375 31.664062 31.175781 30.617188 32.285156 C 29.472656 33.488281 29.09375 34.125 28.792969 35.328125 C 27.761719 39.355469 32.21875 43.953125 42.195312 49.125 C 44.925781 50.535156 50.429688 53.039062 50.542969 52.914062 C 50.574219 52.882812 49.195312 52.121094 47.464844 51.234375 C 39.878906 47.269531 35.992188 44.621094 32.726562 41.164062 C 30.617188 38.945312 29.980469 37.199219 30.535156 35.265625 C 31.074219 33.347656 31.851562 32.394531 34.691406 30.113281 C 35.773438 29.238281 36.597656 28.542969 36.535156 28.542969 C 36.453125 28.542969 35.835938 28.828125 35.121094 29.160156 Z M 35.121094 29.160156 " fill-opacity="1" fill-rule="nonzero"/><path fill="#000000" d="M 58.078125 44.777344 C 58.109375 44.828125 59.109375 45.253906 60.285156 45.746094 C 68.898438 49.363281 74.292969 53.375 76.847656 58.066406 C 78.371094 60.875 78.671875 64.457031 77.65625 67.707031 C 77.417969 68.421875 77.273438 69.039062 77.308594 69.070312 C 77.433594 69.199219 78.65625 66.25 79.019531 64.933594 C 79.496094 63.285156 79.527344 60.492188 79.101562 59.082031 C 77.878906 55.054688 74.214844 51.472656 68.46875 48.679688 C 66.167969 47.570312 64.867188 47.046875 60.617188 45.570312 C 58.1875 44.730469 57.953125 44.652344 58.078125 44.777344 Z M 58.078125 44.777344 " fill-opacity="1" fill-rule="nonzero"/><path fill="#000000" d="M 134.328125 6.332031 C 130.527344 7.132812 128.148438 9.40625 127.050781 13.234375 C 126.753906 14.3125 126.660156 16.011719 126.589844 22.363281 C 126.476562 31.082031 126.660156 33.789062 127.507812 35.644531 C 128.21875 37.160156 130.003906 39.269531 134.761719 44.15625 C 139.273438 48.8125 141.058594 50.96875 141.652344 52.527344 C 142.042969 53.582031 142.089844 54.339844 142.089844 61.542969 L 142.089844 69.410156 L 141.515625 70.558594 C 140.875 71.84375 140.050781 72.417969 138.585938 72.621094 C 136.089844 72.964844 134.328125 72.117188 133.480469 70.121094 C 133.09375 69.25 133.046875 68.265625 132.933594 60.671875 L 132.816406 52.183594 L 126.636719 52.183594 L 126.570312 60.214844 C 126.546875 64.664062 126.613281 69.019531 126.730469 69.984375 C 127.300781 74.320312 129.246094 77.117188 132.636719 78.496094 C 133.847656 78.976562 134.304688 79.023438 137.738281 79.023438 C 141.128906 79.023438 141.652344 78.953125 142.84375 78.496094 C 144.765625 77.714844 146.207031 76.453125 147.078125 74.824219 C 148.566406 72.027344 148.566406 72.050781 148.679688 62.621094 C 148.773438 53.492188 148.636719 51.609375 147.765625 49.316406 C 146.941406 47.183594 145.636719 45.53125 141.058594 40.851562 C 136.25 35.898438 134.054688 33.285156 133.574219 31.953125 C 133.34375 31.289062 133.277344 29.269531 133.277344 23.511719 L 133.277344 15.941406 L 133.847656 14.933594 C 134.535156 13.71875 135.222656 13.191406 136.59375 12.824219 C 138.816406 12.25 140.875 13.074219 141.699219 14.863281 C 142.179688 15.894531 142.203125 16.308594 142.273438 23.441406 L 142.339844 30.964844 L 148.542969 30.964844 L 148.453125 22.410156 C 148.359375 14.980469 148.292969 13.71875 147.949219 12.617188 C 146.988281 9.65625 145.683594 8.027344 143.460938 7.019531 C 141.171875 5.988281 137.28125 5.6875 134.328125 6.332031 Z M 134.328125 6.332031 " fill-opacity="1" fill-rule="nonzero"/><path fill="#000000" d="M 185.648438 6.445312 C 182.992188 6.882812 181.207031 8.328125 180.292969 10.757812 C 179.539062 12.800781 179.421875 13.808594 179.261719 19.3125 L 179.101562 24.542969 L 176.652344 24.542969 L 176.652344 29.820312 L 179.171875 29.820312 L 179.171875 78.449219 L 185.121094 78.449219 L 185.121094 29.820312 L 191.304688 29.820312 L 191.304688 24.542969 L 185.078125 24.542969 L 185.167969 19.773438 C 185.28125 14.863281 185.441406 13.902344 186.335938 12.914062 C 187.113281 12.042969 188.578125 11.605469 190.160156 11.789062 L 191.53125 11.949219 L 191.53125 9.449219 C 191.53125 6.628906 191.625 6.742188 189.65625 6.539062 C 187.160156 6.261719 186.816406 6.261719 185.648438 6.445312 Z M 185.648438 6.445312 " fill-opacity="1" fill-rule="nonzero"/><path fill="#000000" d="M 217.03125 7.730469 C 217.101562 8.210938 218.863281 23.96875 220.945312 42.78125 C 223.03125 61.589844 224.792969 77.300781 224.835938 77.691406 L 224.976562 78.449219 L 232.917969 78.449219 L 233.167969 76.660156 C 234.152344 69.734375 237.085938 41.746094 238.023438 30.09375 C 238.183594 28.191406 238.390625 26.675781 238.457031 26.769531 C 238.550781 26.882812 238.890625 30.300781 239.234375 34.40625 C 240.152344 45.464844 242.921875 74.066406 243.402344 77.484375 L 243.539062 78.449219 L 247.523438 78.449219 C 249.71875 78.449219 251.503906 78.378906 251.503906 78.289062 C 251.503906 78.195312 253.519531 62.207031 255.96875 42.734375 C 258.417969 23.238281 260.433594 7.226562 260.433594 7.089844 C 260.433594 6.972656 258.992188 6.882812 257 6.882812 C 255.121094 6.882812 253.566406 6.925781 253.566406 6.996094 C 253.566406 7.042969 253.0625 11.5625 252.445312 17.019531 C 251.34375 26.609375 251 29.726562 248.597656 52.140625 C 248.003906 57.804688 247.429688 62.230469 247.339844 62.003906 C 247.269531 61.773438 246.035156 49.273438 244.59375 34.222656 L 242.003906 6.882812 L 235.503906 6.882812 L 235.367188 7.617188 C 235.160156 8.785156 233.078125 27.367188 232.046875 37.160156 C 229.78125 58.746094 229.074219 64.710938 229.074219 62.414062 C 229.074219 60.511719 225.113281 18.855469 224.152344 10.550781 C 223.96875 8.96875 223.808594 7.5 223.808594 7.269531 C 223.808594 6.925781 223.488281 6.882812 220.351562 6.882812 L 216.894531 6.882812 Z M 217.03125 7.730469 " fill-opacity="1" fill-rule="nonzero"/><path fill="#000000" d="M 161.546875 23.765625 C 157.332031 24.5 155.386719 26.171875 154.3125 29.933594 C 153.992188 31.058594 153.898438 32.640625 153.832031 38.46875 L 153.71875 45.648438 L 158.980469 45.648438 L 159.050781 39.15625 C 159.140625 32.800781 159.140625 32.664062 159.714844 31.539062 C 160.425781 30.117188 160.996094 29.820312 163.035156 29.820312 C 165.117188 29.820312 165.917969 30.277344 166.488281 31.816406 C 166.878906 32.800781 166.925781 33.628906 166.925781 39.546875 L 166.925781 46.199219 L 163.949219 47.550781 C 158.796875 49.890625 156.371094 51.886719 154.792969 55.121094 C 153.417969 57.941406 153.257812 58.90625 153.144531 65.257812 C 153.007812 71.453125 153.191406 73.5625 154.039062 75.511719 C 155.042969 77.851562 157.449219 79.136719 160.8125 79.136719 C 162.550781 79.136719 162.964844 79.046875 164.0625 78.472656 C 164.820312 78.082031 165.6875 77.371094 166.261719 76.660156 L 167.222656 75.511719 L 167.542969 78.449219 L 172.875 78.449219 L 172.832031 56.726562 C 172.785156 44.730469 172.671875 33.949219 172.53125 32.664062 C 172.074219 27.871094 170.265625 25.253906 166.71875 24.199219 C 165.550781 23.832031 162.507812 23.582031 161.546875 23.765625 Z M 167.039062 60.488281 C 167.039062 69.296875 166.992188 70.144531 166.605469 70.992188 C 166.101562 72.09375 165.597656 72.578125 164.453125 73.058594 C 162.53125 73.863281 160.308594 73.148438 159.507812 71.476562 C 159.074219 70.582031 159.027344 70.097656 159.027344 65.695312 C 159.050781 63.058594 159.140625 60.167969 159.234375 59.273438 C 159.621094 55.855469 161.40625 53.515625 164.839844 51.839844 C 165.871094 51.335938 166.765625 50.945312 166.878906 50.921875 C 166.96875 50.921875 167.039062 55.234375 167.039062 60.488281 Z M 167.039062 60.488281 " fill-opacity="1" fill-rule="nonzero"/><path fill="#000000" d="M 202.289062 23.878906 C 198.8125 24.476562 196.40625 26.859375 195.539062 30.554688 C 195.035156 32.710938 195.035156 70.28125 195.539062 72.4375 C 196.222656 75.351562 197.621094 77.234375 199.933594 78.378906 C 201.125 78.953125 201.558594 79.023438 203.894531 79.089844 C 206 79.160156 206.800781 79.089844 207.898438 78.746094 C 210.691406 77.851562 212.316406 76.269531 213.324219 73.402344 C 213.828125 71.980469 213.851562 71.542969 213.917969 64.160156 L 213.988281 56.40625 L 211.285156 56.472656 L 208.585938 56.542969 L 208.472656 63.308594 C 208.332031 70.742188 208.265625 71.15625 206.890625 72.300781 C 206.023438 73.058594 204.417969 73.332031 203.207031 72.964844 C 202.175781 72.667969 201.261719 71.660156 200.917969 70.464844 C 200.78125 69.960938 200.6875 66.175781 200.6875 60.832031 L 200.6875 52.070312 L 213.988281 52.070312 L 213.917969 41.5625 C 213.851562 31.3125 213.828125 31.058594 213.324219 29.589844 C 212.339844 26.792969 210.507812 24.957031 207.945312 24.199219 C 206.457031 23.765625 203.824219 23.605469 202.289062 23.878906 Z M 206.570312 30.507812 C 206.984375 30.738281 207.53125 31.402344 207.828125 31.929688 C 208.332031 32.894531 208.355469 33.144531 208.425781 40.300781 L 208.515625 47.710938 L 200.664062 47.710938 L 200.734375 40.074219 C 200.800781 31.609375 200.847656 31.425781 202.359375 30.507812 C 203.367188 29.886719 205.5625 29.886719 206.570312 30.507812 Z M 206.570312 30.507812 " fill-opacity="1" fill-rule="nonzero"/><path fill="#000000" d="M 270.503906 23.832031 C 266.703125 24.359375 264.851562 25.851562 263.589844 29.40625 C 263.109375 30.761719 263.085938 31.289062 262.996094 38.238281 L 262.90625 45.648438 L 268.191406 45.648438 L 268.261719 38.925781 C 268.328125 32.917969 268.375 32.136719 268.765625 31.402344 C 269.382812 30.210938 270.320312 29.726562 272.105469 29.726562 C 274.027344 29.726562 274.96875 30.210938 275.5625 31.496094 C 275.953125 32.367188 275.996094 33.078125 275.996094 39.363281 L 275.996094 46.242188 L 273.226562 47.480469 C 267.023438 50.257812 264.09375 53.21875 262.789062 58.035156 C 262.445312 59.296875 262.378906 60.558594 262.378906 66.40625 C 262.378906 74.574219 262.515625 75.328125 264.277344 77.09375 C 265.742188 78.539062 267.390625 79.136719 269.886719 79.136719 C 272.5625 79.136719 274.007812 78.378906 275.976562 75.925781 L 276.433594 75.351562 L 276.457031 76.179688 C 276.457031 76.636719 276.523438 77.347656 276.59375 77.738281 L 276.753906 78.449219 L 282.222656 78.449219 L 282.039062 77.921875 C 281.949219 77.644531 281.8125 66.933594 281.71875 54.132812 C 281.582031 29.566406 281.605469 30.253906 280.53125 28.097656 C 279.773438 26.65625 279.179688 25.941406 278.058594 25.253906 C 276.226562 24.0625 273.089844 23.488281 270.503906 23.832031 Z M 275.953125 63.792969 L 275.882812 71.039062 L 275.265625 71.84375 C 274.074219 73.402344 271.121094 73.882812 269.632812 72.785156 C 268.328125 71.820312 268.101562 71.0625 268.03125 67.4375 C 267.984375 65.605469 268.054688 62.691406 268.167969 60.945312 C 268.375 58.355469 268.511719 57.574219 269.015625 56.472656 C 269.976562 54.339844 272.152344 52.460938 274.785156 51.40625 L 275.882812 50.96875 L 275.953125 53.765625 C 275.976562 55.28125 275.976562 59.800781 275.953125 63.792969 Z M 275.953125 63.792969 " fill-opacity="1" fill-rule="nonzero"/><path fill="#000000" d="M 317.703125 23.878906 C 314.042969 24.335938 311.867188 25.964844 310.769531 28.992188 C 310.3125 30.277344 310.242188 30.898438 310.171875 36.242188 C 310.058594 42.941406 310.265625 44.636719 311.523438 46.769531 C 312.003906 47.550781 313.90625 49.660156 316.535156 52.300781 C 320.976562 56.726562 321.800781 57.691406 322.71875 59.410156 C 323.242188 60.417969 323.265625 60.601562 323.265625 65.71875 C 323.265625 70.582031 323.222656 71.0625 322.808594 71.773438 C 321.960938 73.195312 319.742188 73.839844 317.957031 73.148438 C 316.996094 72.804688 315.851562 71.589844 315.597656 70.648438 C 315.484375 70.214844 315.371094 67.761719 315.371094 65.191406 L 315.371094 60.558594 L 310.105469 60.558594 L 310.105469 65.949219 C 310.105469 71.867188 310.265625 73.082031 311.316406 75.078125 C 312.140625 76.660156 313.171875 77.625 314.910156 78.425781 C 316.101562 78.976562 316.375 79.023438 319.605469 79.023438 C 323.585938 79 324.847656 78.65625 326.675781 77.027344 C 328.851562 75.121094 329.332031 73.21875 329.332031 66.40625 C 329.332031 56.773438 328.875 55.855469 320.3125 47.964844 C 317.726562 45.601562 316.398438 43.949219 316.054688 42.710938 C 315.734375 41.519531 315.757812 33.191406 316.101562 32.066406 C 316.605469 30.324219 318.664062 29.269531 320.632812 29.707031 C 321.414062 29.867188 322.761719 30.945312 323.222656 31.746094 C 323.402344 32.066406 323.542969 33.996094 323.609375 37.503906 L 323.722656 42.78125 L 326.449219 42.847656 L 329.148438 42.917969 L 329.058594 36.65625 C 328.964844 31.058594 328.898438 30.234375 328.460938 28.902344 C 327.820312 26.976562 327.042969 25.851562 325.832031 25.140625 C 323.90625 24.015625 320.589844 23.511719 317.703125 23.878906 Z M 317.703125 23.878906 " fill-opacity="1" fill-rule="nonzero"/><path fill="#000000" d="M 285.152344 24.957031 C 285.152344 25.210938 286.917969 37.089844 289.046875 51.40625 L 292.9375 77.417969 L 292.59375 79.320312 C 291.679688 84.183594 290.554688 85.332031 287.238281 84.824219 C 286.4375 84.710938 285.75 84.640625 285.703125 84.710938 C 285.65625 84.757812 285.679688 86.085938 285.75 87.671875 L 285.910156 90.539062 L 287.535156 90.765625 C 288.542969 90.90625 289.730469 90.925781 290.648438 90.8125 C 295.066406 90.214844 297.078125 87.855469 298.292969 81.84375 C 298.589844 80.351562 306.898438 25.253906 306.898438 24.726562 C 306.898438 24.636719 305.640625 24.542969 304.085938 24.542969 L 301.269531 24.542969 L 300.996094 26.195312 C 299.871094 33.078125 296.78125 57.09375 296.234375 62.964844 C 296.003906 65.558594 295.820312 64.753906 295.113281 57.804688 C 294.425781 51.128906 292.226562 31.839844 291.632812 27.457031 L 291.242188 24.542969 L 288.199219 24.542969 C 285.40625 24.542969 285.152344 24.566406 285.152344 24.957031 Z M 285.152344 24.957031 " fill-opacity="1" fill-rule="nonzero"/></svg>